#!OML:ASF G:\JayActor3\Patient Classification 1\Patient 1\Session 6\male.ASF
:FULLY-SPECIFIED
:DEGREES
495
root 31.2907 15.3843 0.59869 187.741 -48.0867 -171.585
lowerback 30.3239 -2.3382 4.75923
upperback 3.8041 -2.06514 0.582098
thorax -11.7288 -1.4128 -1.11856
lowerneck 0.542623 1.67017 1.61993
upperneck -4.85101 2.27644 1.97814
head -1.59516 1.03556 0.308278
rclavicle 5.96354e-015 4.49253e-014
rhumerus -36.7338 19.2498 -90.8364
rradius 45.5328
rwrist -5.63668
rhand -18.6905 -8.68387
rfingers 7.12502
rthumb 7.60391 -38.5272
lclavicle 5.96354e-015 4.49253e-014
lhumerus -42.2398 -26.9745 92.8281
lradius 45.3861
lwrist 28.9994
lhand -20.6233 3.81486
lfingers 7.12502
lthumb 5.73802 33.7172
rfemur -45.2745 12.0794 27.432
rtibia 55.2095
rfoot -22.4948 -15.4853
rtoes 0.654931
lfemur -70.7389 8.79622 -18.8098
ltibia 65.9342
lfoot -14.8537 3.14348
ltoes -11.5774
496
root 31.1518 15.4026 0.487793 187.597 -48.1406 -171.497
lowerback 30.1171 -2.33491 4.91165
upperback 3.71104 -2.00136 0.607914
thorax -11.7431 -1.38495 -1.20255
lowerneck -0.0863665 1.63627 1.70922
upperneck -3.9896 2.20189 1.86217
head -1.21064 1.01919 0.266883
rclavicle -1.86858e-014 -2.66371e-014
rhumerus -36.9113 19.5149 -90.9965
rradius 44.9323
rwrist -5.67556
rhand -18.0167 -8.89132
rfingers 7.12502
rthumb 8.25423 -38.7101
lclavicle -1.86858e-014 -2.66371e-014
lhumerus -42.082 -27.2085 93.0077
lradius 44.8838
lwrist 28.5548
lhand -20.4536 4.02691
lfingers 7.12502
lthumb 5.9019 33.9247
rfemur -44.4322 12.0782 27.6083
rtibia 55.2061
rfoot -22.8064 -15.5632
rtoes 0.07157
lfemur -69.1822 8.63698 -18.8253
ltibia 61.2423
lfoot -15.0954 3.34337
ltoes -11.9734
497
root 31.0099 15.4226 0.378736 187.426 -48.1562 -171.382
lowerback 29.7924 -2.30723 5.05945
upperback 4.03662 -1.92442 0.687028
thorax -12.0194 -1.35557 -1.32986
lowerneck -0.435555 1.58869 1.8143
upperneck -3.45358 2.12067 1.72573
head -0.980851 0.99133 0.213587
rclavicle -3.49861e-014 -2.8625e-014
rhumerus -37.1978 19.8212 -91.1379
rradius 44.6319
rwrist -5.79701
rhand -17.4769 -9.05552
rfingers 7.12502
rthumb 8.77519 -38.8531
lclavicle -3.49861e-014 -2.8625e-014
lhumerus -42.0504 -27.366 93.1374
lradius 44.7359
lwrist 28.2835
lhand -20.4825 4.27793
lfingers 7.12502
lthumb 5.87399 34.1765
rfemur -43.5834 11.9957 27.8164
rtibia 55.2084
rfoot -23.0311 -15.5199
rtoes -0.55917
lfemur -67.52 8.50886 -18.7853
ltibia 56.512
lfoot -15.2752 3.3686
ltoes -12.4322
498
root 30.8655 15.4425 0.271833 187.24 -48.1334 -171.256
lowerback 29.6124 -2.28021 5.2358
upperback 3.97397 -1.83042 0.707402
thorax -11.9987 -1.31725 -1.44922
lowerneck -0.502478 1.527 1.92849
upperneck -3.26085 2.03298 1.59394
head -0.907025 0.952212 0.15672
rclavicle 8.74653e-015 -2.8625e-014
rhumerus -37.5595 20.149 -91.2582
rradius 44.6124
rwrist -5.98744
rhand -17.0638 -9.17546
rfingers 7.12502
rthumb 9.17381 -38.9559
lclavicle 8.74653e-015 -2.8625e-014
lhumerus -42.1461 -27.4923 93.223
lradius 44.9341
lwrist 28.1921
lhand -20.7732 4.57617
lfingers 7.12502
lthumb 5.59329 34.4824
rfemur -42.7728 11.8227 28.0479
rtibia 55.2853
rfoot -23.1464 -15.3775
rtoes -1.34896
lfemur -65.7963 8.40378 -18.6997
ltibia 51.8428
lfoot -15.3976 3.26828
ltoes -12.9846
499
root 30.7194 15.4607 0.167194 187.043 -48.0692 -171.123
lowerback 29.4387 -2.24466 5.4075
upperback 3.93801 -1.73276 0.719465
thorax -11.949 -1.27783 -1.57682
lowerneck -0.292542 1.45932 2.03328
upperneck -3.40226 1.9499 1.49441
head -0.984216 0.907974 0.107468
rclavicle 1.43125e-014 6.63941e-014
rhumerus -37.9652 20.4886 -91.3497
rradius 44.8512
rwrist -6.22747
rhand -16.7404 -9.24709
rfingers 7.12502
rthumb 9.48583 -39.0136
lclavicle 1.43125e-014 6.63941e-014
lhumerus -42.3388 -27.5793 93.2355
lradius 45.4517
lwrist 28.3483
lhand -21.1348 4.8954
lfingers 7.12502
lthumb 5.24419 34.8105
rfemur -42.0496 11.5636 28.2992
rtibia 55.5099
rfoot -23.1344 -15.1515
rtoes -2.36852
lfemur -64.0485 8.31113 -18.5623
ltibia 47.3393
lfoot -15.5161 3.06576
ltoes -13.3617
500
root 30.5728 15.4762 0.0650097 186.85 -47.9502 -170.991
lowerback 29.2641 -2.19621 5.55593
upperback 3.93072 -1.63238 0.721297
thorax -11.8641 -1.23661 -1.70391
lowerneck 0.162592 1.39621 2.1311
upperneck -3.83426 1.88451 1.43197
head -1.1951 0.865943 0.0672574
rclavicle -2.74323e-014 1.94809e-014
rhumerus -38.3865 20.8265 -91.4049
rradius 45.3233
rwrist -6.4969
rhand -16.4781 -9.28185
rfingers 7.12502
rthumb 9.73891 -39.0367
lclavicle -2.74323e-014 1.94809e-014
lhumerus -42.5999 -27.6464 93.1633
lradius 46.2426
lwrist 28.7417
lhand -21.48 5.21835
lfingers 7.12502
lthumb 4.91092 35.1414
rfemur -41.479 11.2397 28.561
rtibia 55.9627
rfoot -22.9563 -14.8681
rtoes -3.65907
lfemur -62.325 8.23708 -18.3772
ltibia 43.1071
lfoot -15.6296 2.87339
ltoes -13.7271
